<?xml version="1.0" encoding="utf-8"?>
<!-- Generator: Adobe Illustrator 24.2.0, SVG Export Plug-In . SVG Version: 6.00 Build 0)  -->
<svg version="1.1" id="Layer_1" xmlns="http://www.w3.org/2000/svg" xmlns:xlink="http://www.w3.org/1999/xlink" x="0px" y="0px"
	 viewBox="0 0 430 430" style="enable-background:new 0 0 430 430;" xml:space="preserve">
<style type="text/css">
	.st0{opacity:0.7;fill:#79C2BB;enable-background:new    ;}
	.st1{opacity:0.6;fill:#8CDCD5;enable-background:new    ;}
	.st2{opacity:0.7;fill:#57C5A7;enable-background:new    ;}
</style>
<g>
	<path class="st0" d="M190.3,338C35,426,84.3,75,84.3,75S359,242.3,190.3,338z"/>
	<path class="st0" d="M230.2,330.7c-154.3-90.6,107-262.3,107-262.3S397.8,429,230.2,330.7z"/>
	<path class="st1" d="M210.7,341.3c-171.9-4.1,3.8-291.8,3.8-291.8S397.5,345.6,210.7,341.3z"/>
	<path class="st2" d="M176.6,347.8C15.1,418.5,32.3,112.2,32.3,112.2C23.9,175,318.7,285.6,176.6,347.8z"/>
	<path class="st2" d="M254.9,345.2C418,410.3,393.4,104.8,393.4,104.8C403.3,167.3,111.4,288,254.9,345.2z"/>
</g>
</svg>
