<?xml version="1.0" encoding="utf-8"?>
<!-- Generator: Adobe Illustrator 24.2.0, SVG Export Plug-In . SVG Version: 6.00 Build 0)  -->
<svg version="1.1" id="Layer_1" xmlns="http://www.w3.org/2000/svg" xmlns:xlink="http://www.w3.org/1999/xlink" x="0px" y="0px"
	 viewBox="0 0 430 430" style="enable-background:new 0 0 430 430;" xml:space="preserve">
<style type="text/css">
	.st0{fill:#654EA3;}
	.st1{fill:#EAAFC8;}
	.st2{fill:url(#SVGID_1_);}
	.st3{opacity:0.95;}
	.st4{fill:#88BFBA;}
	.st5{opacity:0.7;fill:#79C2BB;enable-background:new    ;}
	.st6{opacity:0.6;fill:#8CDCD5;enable-background:new    ;}
	.st7{opacity:0.7;fill:#57C5A7;enable-background:new    ;}
</style>
<path class="st0" d="M-207,142h-138c-11.5,0-21-9.4-21-21V21c0-11.6,9.5-21,21-21h138c11.6,0,21,9.4,21,21v100
	C-186,132.6-195.4,142-207,142z"/>
<path class="st1" d="M-153,310h-184c-11.5,0-21-9.5-21-21v-98.4c0-11.6,9.5-21,21-21h184c11.6,0,21,9.4,21,21V289
	C-132,300.5-141.4,310-153,310z"/>
<linearGradient id="SVGID_1_" gradientUnits="userSpaceOnUse" x1="212.561" y1="-43.5062" x2="209.4706" y2="448.4843">
	<stop  offset="0" style="stop-color:#EAAFC8"/>
	<stop  offset="3.348215e-02" style="stop-color:#E28DC6"/>
	<stop  offset="0.1348" style="stop-color:#C896BF"/>
	<stop  offset="0.3058" style="stop-color:#A57CB5"/>
	<stop  offset="0.3467" style="stop-color:#9A74B2"/>
	<stop  offset="0.4138" style="stop-color:#8D6BAE"/>
	<stop  offset="0.4787" style="stop-color:#8968AD"/>
	<stop  offset="0.5616" style="stop-color:#7D60A9"/>
	<stop  offset="0.6517" style="stop-color:#755AA7"/>
	<stop  offset="0.8252" style="stop-color:#6951A4"/>
	<stop  offset="1" style="stop-color:#654EA3"/>
</linearGradient>
<path class="st2" d="M436,440H-14c-11.5,0-21-9.5-21-21V-9c0-11.5,9.5-21,21-21h450c11.5,0,21,9.5,21,21v428
	C457,430.5,447.5,440,436,440z"/>
<g id="Layer_1_1_">
	<g class="st3">
		<g>
			<path class="st4" d="M210.3,291.9c-2.7-1.8-5.4-3.6-8.1-5.3c-2.7-1.7-5.5-3.3-8.3-5c-2.8-1.6-5.5-3.4-8.3-4.8
				c-2.7-1.5-5.7-2.4-8.8-3.5c-1.5-0.6-3.1-1.2-4.6-2l-4.4-2.1l-4.4-2.1l-4.3-2.2c-2.9-1.5-5.8-3.1-8.6-5c-1.4-1-2.7-2-4-3.2
				c-1.2-1.1-2.3-2.1-3.5-3.1c-2.4-2-4.9-3.9-7.6-5.5c-2.6-1.6-5.5-2.9-8.2-3.4c-1.4-0.2-2.6-0.1-3.6,0.4s-1.8,1.5-2.4,2.7l-0.1,0.2
				c0,0,0,0,0,0.1s0,0.2-0.1,0.3c0,0.2,0,0.5,0,0.9c0.1,0.7,0.2,1.4,0.4,2.1c0.4,1.4,1,2.7,1.8,4s1.7,2.5,2.7,3.8
				c1,1.2,2,2.4,3.1,3.2c1.2,0.9,2.7,1.7,4,2.7s2.6,2,3.8,3.1c4.9,4.4,8.9,9.8,11,16c-2.9-5.8-7.2-10.6-12.3-14.5
				c-1.3-1-2.5-1.9-3.9-2.7c-1.3-0.9-2.7-1.5-4.2-2.5s-2.7-2.2-3.8-3.5c-1.1-1.2-2.2-2.5-3.1-3.9c-1-1.4-1.8-3-2.4-4.7
				c-0.3-0.9-0.5-1.7-0.6-2.6c-0.1-0.5-0.1-1-0.1-1.5c0-0.3,0.1-0.6,0.1-0.9c0-0.2,0.1-0.3,0.2-0.5l0.1-0.3c0.7-1.7,2-3.4,3.9-4.4
				s4-1.2,5.8-1c3.7,0.5,6.8,2,9.7,3.7c2.9,1.7,5.6,3.7,8.1,5.8c1.3,1,2.6,2.2,3.7,3.3c1.1,1,2.3,2,3.5,2.9c2.5,1.8,5.3,3.3,8.1,4.8
				l8.5,4.5l4.3,2.2c1.4,0.8,2.8,1.4,4.3,2c2.9,1.2,6.1,2.4,9,4.1s5.5,3.6,8.1,5.4c2.6,1.9,5.3,3.8,7.8,5.8
				C205.5,287.6,207.9,289.7,210.3,291.9z"/>
		</g>
		<g>
			<path class="st4" d="M188.4,325.3c-9.9-1.7-19.7-4.5-29.3-7.7s-19-7.1-28-11.9c-4.5-2.4-8.9-5-13-8c-2.1-1.5-4.1-3.1-6.1-4.5
				c-2-1.5-4.1-3.1-6-5.2c-0.9-1.1-1.8-2.3-2.3-3.8c-0.3-0.9-0.4-1.4-0.5-2l-0.4-1.8l-1.7-7.3l-3.5-14.7L90.8,229l-3.3-14.7
				c-0.6-2.6-1-5.2-0.9-8c0.1-1.4,0.3-2.8,1-4.3c0.1-0.4,0.4-0.7,0.6-1.1c0.2-0.4,0.5-0.7,0.8-1s0.7-0.6,1-0.8
				c0.4-0.3,0.8-0.4,1.2-0.5c0.2-0.1,0.4-0.1,0.6-0.2l0.5-0.1c0.4-0.1,0.7-0.1,1.1-0.2c0.7-0.1,1.5-0.1,2.2,0
				c1.5,0.1,2.9,0.6,4.2,1.4c2.5,1.5,4.2,3.7,5.6,5.9c2.7,4.4,4.8,9.1,6.6,13.8c3.4,9.6,5.4,19.5,7.2,29.4c-2.6-9.7-5.1-19.5-9-28.7
				c-1.9-4.6-4.2-9.1-6.9-13.1c-1.4-2-2.9-3.8-4.8-4.9c-0.9-0.5-1.9-0.8-3-0.9c-0.5,0-1,0-1.6,0.1c-0.3,0-0.5,0.1-0.8,0.1l-0.4,0.1
				l-0.3,0.1c-0.8,0.3-1.3,0.8-1.7,1.7c-0.4,0.9-0.5,1.9-0.6,3.1c0,2.3,0.4,4.7,1,7l3.6,14.7l7,29.4l3.4,14.7l1.7,7.4l0.4,1.8
				c0.1,0.6,0.3,1.3,0.4,1.6c0.3,0.9,0.8,1.8,1.5,2.6c1.4,1.7,3.3,3.2,5.3,4.8c2,1.6,3.9,3.2,5.9,4.6c4,2.9,8.2,5.6,12.5,8.1
				c8.7,5,17.8,9.2,27.1,12.8C169.1,319.4,178.7,322.7,188.4,325.3z"/>
		</g>
		<g>
			<path class="st4" d="M102.4,203.5c-0.7-1.6-1.1-3.3-1.3-5.1c-0.1-0.9-0.1-1.8,0-2.7c0-0.5,0.1-0.9,0.2-1.4s0.2-1,0.5-1.5
				c0.4-1,1.1-1.9,1.9-2.6c0.9-0.7,1.9-1.2,3.1-1.5c1.1-0.2,2.3-0.2,3.3,0.1c1.1,0.3,2.1,0.7,3,1.4s1.6,1.5,2.2,2.5
				c0.1,0.2,0.3,0.5,0.4,0.7l0.3,0.6l0.5,1.2c0.7,1.6,1.3,3.2,1.8,4.8c1.1,3.3,1.9,6.6,2.4,10c-2-2.8-3.7-5.8-5.3-8.8
				c-0.8-1.5-1.6-3-2.3-4.5l-0.6-1.1l-0.3-0.6c-0.1-0.2-0.2-0.3-0.2-0.4c-0.3-0.5-0.7-0.9-1.2-1.3c-0.9-0.7-2.1-1.1-3.2-1
				c-0.6,0-1.1,0.3-1.6,0.5c-0.5,0.3-0.9,0.7-1.2,1.3c-0.2,0.3-0.3,0.6-0.5,0.9c-0.1,0.3-0.3,0.7-0.4,1.1c-0.2,0.7-0.4,1.5-0.6,2.3
				C102.8,200.1,102.6,201.8,102.4,203.5z"/>
		</g>
	</g>
	<g class="st3">
		<g>
			<path class="st4" d="M234.2,294.9c2.2-2.4,4.3-4.8,6.6-7.1c2.3-2.3,4.6-4.5,7.1-6.7c2.4-2.1,4.8-4.3,7.6-6.2
				c2.7-2,5.7-3.4,8.5-4.9c1.4-0.8,2.7-1.5,4-2.4l4-2.6l8.1-5.3c2.7-1.8,5.3-3.5,7.6-5.6c1.2-1,2.3-2.1,3.2-3.2
				c1.1-1.2,2.2-2.5,3.4-3.6c2.3-2.3,4.8-4.5,7.5-6.5c2.7-1.9,5.7-3.8,9.3-4.6c1.8-0.4,3.9-0.4,5.8,0.5c1.9,0.8,3.3,2.4,4.2,4.1
				c0.1,0.1,0.3,0.5,0.4,0.8s0.2,0.6,0.2,0.9c0.1,0.6,0.1,1,0.1,1.5c0,0.9-0.2,1.8-0.4,2.7c-0.4,1.8-1.1,3.4-1.9,4.9
				s-1.8,2.9-2.7,4.2c-1,1.3-2.1,2.7-3.5,3.8c-1.4,1.1-2.7,1.9-3.9,2.9c-1.2,1-2.4,2-3.6,3.1c-4.6,4.3-8.5,9.6-10.8,15.6
				c1.5-6.3,5-12.1,9.4-16.9c1.1-1.2,2.3-2.4,3.5-3.5s2.6-2.1,3.7-3.1s1.9-2.2,2.8-3.5s1.7-2.6,2.3-4c0.7-1.4,1.2-2.8,1.4-4.2
				c0.2-1.3,0.3-3.2-0.1-3.5c-0.7-1.2-1.6-2.1-2.7-2.5c-1-0.4-2.3-0.4-3.6-0.1c-2.7,0.7-5.3,2.3-7.8,4.1s-4.8,4-7,6.2
				c-1.1,1.1-2.2,2.3-3.2,3.5c-1.1,1.3-2.4,2.5-3.7,3.6c-2.6,2.2-5.3,4-8.1,5.8l-4.1,2.6l-4.1,2.6l-4.1,2.5
				c-1.3,0.9-2.9,1.7-4.3,2.4c-3,1.4-5.8,2.7-8.4,4.4c-2.6,1.7-5.2,3.7-7.8,5.6C244.1,286.6,239.2,290.8,234.2,294.9z"/>
		</g>
		<g>
			<path class="st4" d="M258.8,325.9c9.5-3.5,18.6-7.7,27.6-12.2s17.6-9.6,25.7-15.4c4-2.9,8-6,11.7-9.3c1.9-1.6,3.6-3.4,5.5-5.1
				c1.8-1.7,3.6-3.4,4.8-5.3c0.6-0.9,1.1-1.9,1.3-2.7c0.1-0.3,0.2-1,0.2-1.7l0.2-1.9l1-7.5l2-15l4.2-29.9l2.2-15
				c0.4-2.4,0.5-4.8,0.3-7c-0.1-1.1-0.4-2.2-0.9-3s-1-1.3-1.9-1.5l-0.3-0.1H342c-0.3,0-0.5-0.1-0.8-0.1c-0.5,0-1.1,0-1.6,0.1
				c-1,0.2-2,0.6-2.9,1.2c-1.8,1.2-3.1,3.2-4.3,5.3c-2.4,4.3-4.2,9-5.6,13.7c-3,9.5-4.5,19.5-6.2,29.5c0.8-10,1.8-20.1,4.3-30
				c1.3-4.9,2.9-9.8,5.2-14.4c1.2-2.3,2.6-4.7,5-6.4c1.2-0.9,2.6-1.5,4-1.8c0.7-0.1,1.5-0.2,2.2-0.2c0.4,0,0.7,0,1.1,0.1h0.5
				c0.2,0,0.4,0.1,0.6,0.1c0.4,0.1,0.8,0.2,1.2,0.4c0.4,0.2,0.8,0.4,1.1,0.7c0.3,0.3,0.7,0.5,0.9,0.9c0.3,0.3,0.5,0.6,0.7,1
				c0.8,1.4,1.2,2.8,1.4,4.2c0.4,2.8,0.2,5.4-0.1,8l-1.9,15l-4,29.9l-2.1,15l-1,7.5l-0.3,1.9c-0.1,0.6-0.1,1.2-0.3,2.1
				c-0.4,1.6-1.1,2.9-1.9,4c-1.6,2.3-3.6,4.1-5.4,5.8c-1.8,1.7-3.7,3.5-5.6,5.1c-3.9,3.4-8,6.4-12.2,9.2
				c-8.5,5.7-17.4,10.4-26.7,14.6C277.9,319.5,268.5,323.2,258.8,325.9z"/>
		</g>
		<g>
			<path class="st4" d="M332.6,196.4c-0.4-1.7-0.6-3.4-1.1-4.9c-0.2-0.8-0.5-1.5-0.8-2.2c-0.2-0.4-0.3-0.7-0.5-1s-0.4-0.6-0.6-0.8
				c-0.4-0.5-0.9-0.9-1.4-1.1c-0.5-0.2-1-0.4-1.6-0.4c-1.1,0-2.3,0.5-3.1,1.3c-0.4,0.4-0.8,0.9-1,1.4c-0.1,0.1-0.1,0.2-0.2,0.4
				l-0.2,0.6l-0.5,1.2c-0.6,1.6-1.2,3.1-1.9,4.7c-1.3,3.1-2.7,6.2-4.4,9.2c0.1-3.5,0.7-6.9,1.4-10.2c0.4-1.7,0.8-3.3,1.3-5l0.4-1.2
				l0.2-0.6c0.1-0.2,0.2-0.5,0.3-0.7c0.4-1,1.1-1.9,1.9-2.7s1.8-1.3,2.8-1.7s2.2-0.5,3.3-0.4c1.1,0.1,2.2,0.5,3.2,1.1
				c0.9,0.6,1.7,1.5,2.2,2.5c0.3,0.5,0.4,1,0.6,1.4c0.1,0.5,0.2,0.9,0.3,1.4c0.2,0.9,0.2,1.8,0.2,2.7
				C333.4,193,333.1,194.7,332.6,196.4z"/>
		</g>
	</g>
	<g>
		<path class="st5" d="M203.6,245.5c-90.7,51.4-61.9-153.6-61.9-153.6S302.1,189.6,203.6,245.5z"/>
		<path class="st5" d="M226.9,241.2C136.8,188.3,289.4,88,289.4,88S324.8,298.6,226.9,241.2z"/>
		<path class="st6" d="M215.5,247.4C115.1,245,217.7,77,217.7,77S324.6,249.9,215.5,247.4z"/>
		<path class="st7" d="M195.6,251.2c-94.3,41.3-84.3-137.6-84.3-137.6C106.4,150.3,278.6,214.9,195.6,251.2z"/>
		<path class="st7" d="M241.3,249.7c95.3,38,80.9-140.4,80.9-140.4C328,145.8,157.5,216.3,241.3,249.7z"/>
	</g>
</g>
</svg>
